M48
; DRILL file {KiCad 9.0.6} date 2025-11-25T23:04:24-0500
; FORMAT={-:-/ absolute / metric / decimal}
; #@! TF.CreationDate,2025-11-25T23:04:24-05:00
; #@! TF.GenerationSoftware,Kicad,Pcbnew,9.0.6
; #@! TF.FileFunction,Plated,1,2,PTH
FMAT,2
METRIC
; #@! TA.AperFunction,Plated,PTH,ViaDrill
T1C0.300
; #@! TA.AperFunction,Plated,PTH,ComponentDrill
T2C0.600
; #@! TA.AperFunction,Plated,PTH,ComponentDrill
T3C0.800
; #@! TA.AperFunction,Plated,PTH,ComponentDrill
T4C1.000
; #@! TA.AperFunction,Plated,PTH,ComponentDrill
T5C1.200
; #@! TA.AperFunction,Plated,PTH,ComponentDrill
T6C2.110
%
G90
G05
T1
X57.15Y-45.72
X57.15Y-48.26
X60.96Y-74.93
X63.5Y-74.93
X81.28Y-50.8
X81.28Y-58.42
T2
X22.225Y-66.675
X22.225Y-70.275
T3
X22.225Y-53.865
X22.225Y-64.025
X24.765Y-66.675
X27.94Y-26.67
X27.94Y-31.75
X34.925Y-66.675
X36.83Y-44.45
X36.83Y-46.95
X36.83Y-49.53
X36.83Y-59.69
X38.1Y-26.67
X38.1Y-31.75
X38.735Y-62.865
X38.735Y-70.485
X40.005Y-73.795
X40.005Y-76.295
X40.64Y-49.53
X40.64Y-59.69
X41.275Y-62.865
X41.275Y-70.485
X43.815Y-59.69
X43.815Y-62.865
X43.815Y-70.485
X43.815Y-73.795
X43.815Y-76.295
X46.315Y-59.69
X46.355Y-62.865
X46.355Y-70.485
X46.99Y-73.66
X54.61Y-52.07
X57.11Y-52.07
X57.15Y-73.66
X59.69Y-58.42
X59.69Y-66.04
X62.23Y-54.61
X62.23Y-58.42
X62.23Y-66.04
X62.23Y-80.05
X62.23Y-82.55
X63.67Y-69.89
X63.67Y-72.39
X64.73Y-54.61
X64.77Y-58.42
X64.77Y-66.04
X67.31Y-58.42
X67.31Y-66.04
X67.31Y-69.89
X67.31Y-72.39
X68.58Y-82.55
X71.12Y-69.85
X78.74Y-82.55
X81.28Y-69.85
T5
X95.0Y-52.23
X95.0Y-57.23
X95.0Y-62.23
T6
X96.52Y-24.915
X96.52Y-37.615
T4
X89.285Y-83.082G85X88.285Y-83.082
G05
X94.085Y-73.582G85X93.085Y-73.582
G05
X97.085Y-78.582G85X97.085Y-77.582
G05
M30
