%TF.GenerationSoftware,KiCad,Pcbnew,9.0.6*%
%TF.CreationDate,2025-11-25T23:04:21-05:00*%
%TF.ProjectId,jli2555-tin-can,6a6c6932-3535-4352-9d74-696e2d63616e,1.0*%
%TF.SameCoordinates,Original*%
%TF.FileFunction,Copper,L1,Top*%
%TF.FilePolarity,Positive*%
%FSLAX46Y46*%
G04 Gerber Fmt 4.6, Leading zero omitted, Abs format (unit mm)*
G04 Created by KiCad (PCBNEW 9.0.6) date 2025-11-25 23:04:21*
%MOMM*%
%LPD*%
G01*
G04 APERTURE LIST*
G04 Aperture macros list*
%AMRoundRect*
0 Rectangle with rounded corners*
0 $1 Rounding radius*
0 $2 $3 $4 $5 $6 $7 $8 $9 X,Y pos of 4 corners*
0 Add a 4 corners polygon primitive as box body*
4,1,4,$2,$3,$4,$5,$6,$7,$8,$9,$2,$3,0*
0 Add four circle primitives for the rounded corners*
1,1,$1+$1,$2,$3*
1,1,$1+$1,$4,$5*
1,1,$1+$1,$6,$7*
1,1,$1+$1,$8,$9*
0 Add four rect primitives between the rounded corners*
20,1,$1+$1,$2,$3,$4,$5,0*
20,1,$1+$1,$4,$5,$6,$7,0*
20,1,$1+$1,$6,$7,$8,$9,0*
20,1,$1+$1,$8,$9,$2,$3,0*%
G04 Aperture macros list end*
%TA.AperFunction,ComponentPad*%
%ADD10C,1.600000*%
%TD*%
%TA.AperFunction,ComponentPad*%
%ADD11RoundRect,0.250000X-0.550000X0.550000X-0.550000X-0.550000X0.550000X-0.550000X0.550000X0.550000X0*%
%TD*%
%TA.AperFunction,ComponentPad*%
%ADD12RoundRect,0.250000X0.550000X0.550000X-0.550000X0.550000X-0.550000X-0.550000X0.550000X-0.550000X0*%
%TD*%
%TA.AperFunction,ComponentPad*%
%ADD13RoundRect,0.250000X0.550000X-0.550000X0.550000X0.550000X-0.550000X0.550000X-0.550000X-0.550000X0*%
%TD*%
%TA.AperFunction,ComponentPad*%
%ADD14R,1.800000X1.800000*%
%TD*%
%TA.AperFunction,ComponentPad*%
%ADD15C,1.800000*%
%TD*%
%TA.AperFunction,ComponentPad*%
%ADD16O,1.508000X3.016000*%
%TD*%
%TA.AperFunction,ComponentPad*%
%ADD17O,3.016000X1.508000*%
%TD*%
%TA.AperFunction,ComponentPad*%
%ADD18C,3.126000*%
%TD*%
%TA.AperFunction,ViaPad*%
%ADD19C,0.600000*%
%TD*%
%TA.AperFunction,Conductor*%
%ADD20C,0.635000*%
%TD*%
%TA.AperFunction,Conductor*%
%ADD21C,0.300000*%
%TD*%
%TA.AperFunction,Conductor*%
%ADD22C,0.200000*%
%TD*%
G04 APERTURE END LIST*
D10*
%TO.P,R7,1*%
%TO.N,Net-(U2A-+)*%
X27940000Y-31750000D03*
%TO.P,R7,2*%
%TO.N,GND*%
X38100000Y-31750000D03*
%TD*%
D11*
%TO.P,U2,1*%
%TO.N,Vref*%
X67310000Y-58420000D03*
D10*
%TO.P,U2,2,-*%
X64770000Y-58420000D03*
%TO.P,U2,3,+*%
%TO.N,Net-(U2A-+)*%
X62230000Y-58420000D03*
%TO.P,U2,4,V-*%
%TO.N,GND*%
X59690000Y-58420000D03*
%TO.P,U2,5,+*%
%TO.N,Net-(U2B-+)*%
X59690000Y-66040000D03*
%TO.P,U2,6,-*%
%TO.N,Net-(U2B--)*%
X62230000Y-66040000D03*
%TO.P,U2,7*%
X64770000Y-66040000D03*
%TO.P,U2,8,V+*%
%TO.N,Net-(U2C-V+)*%
X67310000Y-66040000D03*
%TD*%
D12*
%TO.P,C4,1*%
%TO.N,Net-(U2A-+)*%
X57110000Y-52070000D03*
D10*
%TO.P,C4,2*%
%TO.N,GND*%
X54610000Y-52070000D03*
%TD*%
D11*
%TO.P,C3,1*%
%TO.N,Net-(U2B--)*%
X62230000Y-80050000D03*
D10*
%TO.P,C3,2*%
%TO.N,Net-(C3-Pad2)*%
X62230000Y-82550000D03*
%TD*%
D11*
%TO.P,U1,1,NC*%
%TO.N,unconnected-(U1B-NC-Pad1)*%
X46355000Y-62865000D03*
D10*
%TO.P,U1,2,-*%
%TO.N,Net-(U1A--)*%
X43815000Y-62865000D03*
%TO.P,U1,3,+*%
%TO.N,Net-(U1A-+)*%
X41275000Y-62865000D03*
%TO.P,U1,4,V-*%
%TO.N,GND*%
X38735000Y-62865000D03*
%TO.P,U1,5,NC*%
%TO.N,unconnected-(U1B-NC-Pad5)*%
X38735000Y-70485000D03*
%TO.P,U1,6*%
%TO.N,Net-(C1-Pad2)*%
X41275000Y-70485000D03*
%TO.P,U1,7,V+*%
%TO.N,Net-(U1B-V+)*%
X43815000Y-70485000D03*
%TO.P,U1,8,NC*%
%TO.N,unconnected-(U1B-NC-Pad8)*%
X46355000Y-70485000D03*
%TD*%
%TO.P,C1,1*%
%TO.N,Net-(U1A--)*%
X43815000Y-59690000D03*
%TO.P,C1,2*%
%TO.N,Net-(C1-Pad2)*%
X46315000Y-59690000D03*
%TD*%
%TO.P,C7,1*%
%TO.N,GND*%
X40005000Y-76295000D03*
%TO.P,C7,2*%
%TO.N,Net-(U1B-V+)*%
X40005000Y-73795000D03*
%TD*%
D13*
%TO.P,MK1,1,-*%
%TO.N,GND*%
X22225000Y-70275000D03*
D10*
%TO.P,MK1,2,+*%
%TO.N,Net-(MK1-+)*%
X22225000Y-66675000D03*
%TD*%
%TO.P,C9,1*%
%TO.N,GND*%
X63670000Y-72390000D03*
%TO.P,C9,2*%
%TO.N,Net-(U2C-V+)*%
X63670000Y-69890000D03*
%TD*%
%TO.P,R1,1*%
%TO.N,Net-(MK1-+)*%
X22225000Y-64025000D03*
%TO.P,R1,2*%
%TO.N,Vref*%
X22225000Y-53865000D03*
%TD*%
%TO.P,C2,1*%
%TO.N,Vref*%
X36830000Y-44450000D03*
%TO.P,C2,2*%
%TO.N,Net-(C2-Pad2)*%
X36830000Y-46950000D03*
%TD*%
%TO.P,R9,1*%
%TO.N,Net-(U2C-V+)*%
X71120000Y-69850000D03*
%TO.P,R9,2*%
%TO.N,+9v*%
X81280000Y-69850000D03*
%TD*%
%TO.P,C8,1*%
%TO.N,GND*%
X67310000Y-72390000D03*
%TO.P,C8,2*%
%TO.N,Net-(U2C-V+)*%
X67310000Y-69890000D03*
%TD*%
D14*
%TO.P,POT1,1*%
%TO.N,Net-(C1-Pad2)*%
X95000000Y-62230000D03*
D15*
%TO.P,POT1,2*%
%TO.N,Net-(U2B-+)*%
X95000000Y-57230000D03*
%TO.P,POT1,3*%
%TO.N,Vref*%
X95000000Y-52230000D03*
%TD*%
D10*
%TO.P,R4,1*%
%TO.N,Net-(U1A--)*%
X36830000Y-59690000D03*
%TO.P,R4,2*%
%TO.N,Net-(C2-Pad2)*%
X36830000Y-49530000D03*
%TD*%
%TO.P,R5,1*%
%TO.N,Net-(C3-Pad2)*%
X68580000Y-82550000D03*
%TO.P,R5,2*%
%TO.N,Net-(J1-Pad2)*%
X78740000Y-82550000D03*
%TD*%
%TO.P,R2,1*%
%TO.N,Net-(MK1-+)*%
X24765000Y-66675000D03*
%TO.P,R2,2*%
%TO.N,Net-(U1A-+)*%
X34925000Y-66675000D03*
%TD*%
D16*
%TO.P,J1,1*%
%TO.N,GND*%
X97085000Y-78082500D03*
D17*
%TO.P,J1,2*%
%TO.N,Net-(J1-Pad2)*%
X93585000Y-73582500D03*
%TO.P,J1,3*%
%TO.N,BAT -*%
X88785000Y-83082500D03*
%TD*%
D10*
%TO.P,R8,1*%
%TO.N,Net-(U1B-V+)*%
X46990000Y-73660000D03*
%TO.P,R8,2*%
%TO.N,+9v*%
X57150000Y-73660000D03*
%TD*%
%TO.P,R6,1*%
%TO.N,+9v*%
X38100000Y-26670000D03*
%TO.P,R6,2*%
%TO.N,Net-(U2A-+)*%
X27940000Y-26670000D03*
%TD*%
%TO.P,C6,1*%
%TO.N,GND*%
X43815000Y-76295000D03*
%TO.P,C6,2*%
%TO.N,Net-(U1B-V+)*%
X43815000Y-73795000D03*
%TD*%
%TO.P,R3,1*%
%TO.N,Net-(U1A--)*%
X40640000Y-59690000D03*
%TO.P,R3,2*%
%TO.N,Net-(C1-Pad2)*%
X40640000Y-49530000D03*
%TD*%
%TO.P,C5,1*%
%TO.N,GND*%
X64730000Y-54610000D03*
%TO.P,C5,2*%
%TO.N,Net-(U2A-+)*%
X62230000Y-54610000D03*
%TD*%
D18*
%TO.P,BT2,N*%
%TO.N,BAT -*%
X96520000Y-37615000D03*
%TO.P,BT2,P*%
%TO.N,+9v*%
X96520000Y-24915000D03*
%TD*%
D19*
%TO.N,+9v*%
X81280000Y-58420000D03*
X81280000Y-50800000D03*
X63500000Y-74930000D03*
X60960000Y-74930000D03*
%TO.N,Net-(U2A-+)*%
X57150000Y-48260000D03*
X57150000Y-45720000D03*
%TD*%
D20*
%TO.N,BAT -*%
X98181500Y-39686500D02*
X98181500Y-73936000D01*
X96640000Y-38145000D02*
X98181500Y-39686500D01*
D21*
X88785000Y-83232500D02*
X88885000Y-83232500D01*
D20*
X98181500Y-73936000D02*
X88885000Y-83232500D01*
%TO.N,+9v*%
X58420000Y-74930000D02*
X60960000Y-74930000D01*
X90655000Y-24915000D02*
X76835000Y-38735000D01*
X76835000Y-43815000D02*
X81280000Y-48260000D01*
X76200000Y-74930000D02*
X63500000Y-74930000D01*
X96520000Y-24915000D02*
X90655000Y-24915000D01*
X76835000Y-38735000D02*
X76835000Y-43815000D01*
X57150000Y-73660000D02*
X58420000Y-74930000D01*
X81280000Y-69850000D02*
X76200000Y-74930000D01*
X81280000Y-48260000D02*
X81280000Y-50800000D01*
D21*
X64770000Y-26670000D02*
X76835000Y-38735000D01*
D20*
X81280000Y-69850000D02*
X81280000Y-58420000D01*
D21*
X38100000Y-26670000D02*
X64770000Y-26670000D01*
%TO.N,Net-(U1A--)*%
X43815000Y-59690000D02*
X36830000Y-59690000D01*
X43815000Y-62865000D02*
X43815000Y-59690000D01*
%TO.N,Net-(C1-Pad2)*%
X40640000Y-49530000D02*
X40640000Y-52070000D01*
X96520000Y-60880000D02*
X96520000Y-55880000D01*
X40640000Y-52070000D02*
X46315000Y-57745000D01*
X46315000Y-57745000D02*
X46315000Y-59690000D01*
X96520000Y-55880000D02*
X95250000Y-54610000D01*
X55880000Y-62230000D02*
X53340000Y-59690000D01*
X53340000Y-59690000D02*
X46315000Y-59690000D01*
X95170000Y-62230000D02*
X96520000Y-60880000D01*
X77470000Y-54610000D02*
X69850000Y-62230000D01*
X45204000Y-66556000D02*
X41275000Y-70485000D01*
X95000000Y-62230000D02*
X95170000Y-62230000D01*
X46315000Y-59690000D02*
X45204000Y-60801000D01*
X69850000Y-62230000D02*
X55880000Y-62230000D01*
X45204000Y-60801000D02*
X45204000Y-66556000D01*
X95250000Y-54610000D02*
X77470000Y-54610000D01*
%TO.N,Net-(C2-Pad2)*%
X36830000Y-49530000D02*
X36830000Y-46950000D01*
%TO.N,Net-(U2B-+)*%
X71120000Y-63500000D02*
X62230000Y-63500000D01*
X77470000Y-57150000D02*
X71120000Y-63500000D01*
X93980000Y-57150000D02*
X77470000Y-57150000D01*
X94920000Y-57150000D02*
X95000000Y-57230000D01*
X95250000Y-57150000D02*
X93980000Y-57150000D01*
X62230000Y-63500000D02*
X59690000Y-66040000D01*
X93980000Y-57150000D02*
X94920000Y-57150000D01*
D20*
%TO.N,Net-(U1B-V+)*%
X43815000Y-73795000D02*
X43815000Y-70485000D01*
X40005000Y-73795000D02*
X46855000Y-73795000D01*
X46855000Y-73795000D02*
X46990000Y-73660000D01*
X40075000Y-73725000D02*
X40005000Y-73795000D01*
%TO.N,Net-(U2C-V+)*%
X63670000Y-69890000D02*
X71080000Y-69890000D01*
X71080000Y-69890000D02*
X71120000Y-69850000D01*
X67310000Y-69890000D02*
X67310000Y-66040000D01*
D22*
%TO.N,Net-(MK1-+)*%
X22225000Y-66675000D02*
X24765000Y-66675000D01*
X22225000Y-66675000D02*
X22225000Y-64025000D01*
D21*
%TO.N,Net-(U2A-+)*%
X57110000Y-48300000D02*
X57150000Y-48260000D01*
X62230000Y-54610000D02*
X59650000Y-54610000D01*
X57110000Y-52070000D02*
X57110000Y-48300000D01*
X27940000Y-31750000D02*
X29845000Y-33655000D01*
X57150000Y-45720000D02*
X45085000Y-33655000D01*
X45085000Y-33655000D02*
X29845000Y-33655000D01*
X59650000Y-54610000D02*
X57110000Y-52070000D01*
X27940000Y-26670000D02*
X27940000Y-31750000D01*
X62230000Y-58420000D02*
X62230000Y-54610000D01*
%TO.N,Vref*%
X67310000Y-58420000D02*
X67310000Y-48260000D01*
X24130000Y-71120000D02*
X22860000Y-72390000D01*
X36830000Y-44450000D02*
X24130000Y-44450000D01*
X33020000Y-67310000D02*
X33020000Y-66040000D01*
X71120000Y-58420000D02*
X67310000Y-58420000D01*
X20320000Y-54610000D02*
X21065000Y-53865000D01*
X93980000Y-52150000D02*
X94920000Y-52150000D01*
X25400000Y-68580000D02*
X24130000Y-69850000D01*
X25400000Y-68580000D02*
X31750000Y-68580000D01*
X24130000Y-69850000D02*
X24130000Y-71120000D01*
X24130000Y-44450000D02*
X22225000Y-46355000D01*
X77390000Y-52150000D02*
X71120000Y-58420000D01*
X31750000Y-64770000D02*
X25400000Y-64770000D01*
X25400000Y-64770000D02*
X24130000Y-63500000D01*
X23385000Y-53865000D02*
X24130000Y-54610000D01*
X93980000Y-52150000D02*
X77390000Y-52150000D01*
X39370000Y-46990000D02*
X66040000Y-46990000D01*
X33020000Y-66040000D02*
X31750000Y-64770000D01*
X36830000Y-44450000D02*
X39370000Y-46990000D01*
X66040000Y-46990000D02*
X67310000Y-48260000D01*
X22225000Y-53865000D02*
X23385000Y-53865000D01*
X22225000Y-46355000D02*
X22225000Y-53865000D01*
X95250000Y-52150000D02*
X93980000Y-52150000D01*
X22860000Y-72390000D02*
X21590000Y-72390000D01*
X24130000Y-63500000D02*
X24130000Y-54610000D01*
X20320000Y-71120000D02*
X20320000Y-54610000D01*
X31750000Y-68580000D02*
X33020000Y-67310000D01*
X94920000Y-52150000D02*
X95000000Y-52230000D01*
X21590000Y-72390000D02*
X20320000Y-71120000D01*
X21065000Y-53865000D02*
X22225000Y-53865000D01*
X64770000Y-58420000D02*
X67310000Y-58420000D01*
%TO.N,Net-(U2B--)*%
X64770000Y-66040000D02*
X62230000Y-66040000D01*
X62230000Y-80050000D02*
X62230000Y-66040000D01*
%TO.N,Net-(C3-Pad2)*%
X62230000Y-82550000D02*
X68580000Y-82550000D01*
%TO.N,Net-(U1A-+)*%
X41275000Y-62865000D02*
X37465000Y-66675000D01*
X37465000Y-66675000D02*
X34925000Y-66675000D01*
%TO.N,Net-(J1-Pad2)*%
X86510000Y-73582500D02*
X78740000Y-81352500D01*
X93585000Y-73582500D02*
X86510000Y-73582500D01*
X78740000Y-81352500D02*
X78740000Y-82550000D01*
%TD*%
M02*
